<svg width="147" height="80" viewBox="0 0 147 80" fill="none" xmlns="http://www.w3.org/2000/svg" role="img" aria-label="molari.ai">
  <title>molari.ai</title>
  <rect x="4" y="4" width="139" height="60" rx="14" fill="#1A5C7A"/>
  <path d="M31 63 L28 74 L47 63 Z" fill="#1A5C7A"/>
  <path d="M16,22 Q16,16 22,16 L26,16 L34,39 L42,16 L46,16 Q52,16 52,22 L52,48 Q52,52 48,52 Q44,52 44,48 L44,31 L37,46 L31,46 L24,31 L24,48 Q24,52 20,52 Q16,52 16,48 Z" fill="#fff"/>
  <text x="54" y="43" font-family="'Plus Jakarta Sans', -apple-system, BlinkMacSystemFont, 'Segoe UI', Roboto, sans-serif" font-size="25" font-weight="800" letter-spacing="-1" fill="#fff">olari<tspan fill="#F0997B">.ai</tspan></text>
</svg>
